# xmcd
#
# Track frame offsets:
# 150
# 26389
# 101029
# 124309
# 163235
#
# Disc length: 3008 seconds
#
# Revision: 0
# Processed by: cddbd v1.5.2PL0 Copyright (c) Steve Scherf et al.
# Submitted via: Audion 3.0.2 (http://www.panic.com/audion/)
#
DISCID=3d0bbe05
DTITLE=Pat Metheny Group - Travels [Live] [Disc 2]
DYEAR=1900
DGENRE=
TTITLE0=Extradition2.	Goin' Ahead/As Falls
TTITLE1=Goin' Ahead/As Falls Wichita, So Falls Wichita Falls 
TTITLE2=Travels
TTITLE3=Song For Bilbao 
TTITLE4=San Lorenzo
EXTD=
EXTT0=
EXTT1=
EXTT2=
EXTT3=
EXTT4=
PLAYORDER=
